inDegrees=yes
name=ik_S41_A04_T01
DataType=double
version=3
OpenSimVersion=4.3-2021-08-27-4bc7ad9
endheader
time	pelvis_tilt	pelvis_list	pelvis_rotation	pelvis_tx	pelvis_ty	pelvis_tz	hip_flexion_r	hip_adduction_r	hip_rotation_r	knee_angle_r	knee_angle_r_beta	ankle_angle_r	subtalar_angle_r	mtp_angle_r	hip_flexion_l	hip_adduction_l	hip_rotation_l	knee_angle_l	knee_angle_l_beta	ankle_angle_l	subtalar_angle_l	mtp_angle_l	lumbar_extension	lumbar_bending	lumbar_rotation	arm_flex_r	arm_add_r	arm_rot_r	elbow_flex_r	pro_sup_r	wrist_flex_r	wrist_dev_r	arm_flex_l	arm_add_l	arm_rot_l	elbow_flex_l	pro_sup_l	wrist_flex_l	wrist_dev_l
0	0	0	0	0	0.9399999999999999	0	0	0	0	0	0	0	0	0	0	0	0	0	0	0	0	0	0	0	0	0	0	0	0	89.99999999963507	0	0	0	0	0	0	89.99999999869995	0	0
0.02	-4.659898979702476	-3.17351202922413	30.06109849945016	0	0.9399999999999999	0	54.4836181395716	-0.5249078222206065	-16.72424284995968	46.90546454774915	0.8186547935356956	0	0	0	58.19491479427834	13.84676842655288	-23.831870714556	44.59574283897029	0.7783425449127149	0	0	0	0	0	0	3.369911331239845	-3.369911331239845	0.6164335133927706	18.07230568305512	89.38356652263022	0	0	3.369911331239845	-3.369911331239845	0.6164335133927706	18.07230568305512	89.38356652181072	0	0
0.04	-4.681895669591883	-3.17199252314066	30.04726895467695	0	0.9399999999999999	0	54.4999336122688	-0.5224198171882154	-16.69538123243462	46.91389753392103	0.8188019769101701	0	0	0	58.22893571568991	13.84564420405633	-23.84651807264122	44.6282108479711	0.7789092185713463	0	0	0	0	0	0	3.511736695880935	-3.511736695880935	0.6433902427524703	18.77543936100375	89.35660979487011	0	0	3.511736695880935	-3.511736695880935	0.6433902427524703	18.77543936100375	89.3566097940556	0	0
0.06	-4.689208957564166	-3.156699045440264	30.04386473500564	0	0.9399999999999999	0	54.51866634651508	-0.5378736077021671	-16.69945109860612	46.91063498656946	0.818745034716883	0	0	0	58.21842622958861	13.84434270459101	-23.87678811853458	44.63085187458348	0.7789553131813651	0	0	0	0	0	0	3.623397939122627	-3.623397939122627	0.6645843249464557	19.31794284303265	89.33541571393302	0	0	3.623397939122627	-3.623397939122627	0.6645843249464557	19.31794284303265	89.33541571312264	0	0
0.08	-4.707666377500354	-3.172302902492187	30.01610411132156	0	0.9399999999999999	0	54.52594509226168	-0.5025074325793755	-16.67453149505036	46.92115266977996	0.818928602918588	0	0	0	58.26190165852166	13.81625302969992	-23.87058948107628	44.6578983403629	0.7794273630602438	0	0	0	0	0	0	3.749575770548585	-3.749575770548585	0.6885624347848167	19.9493735674591	89.31143760551737	0	0	3.749575770548585	-3.749575770548585	0.6885624347848167	19.9493735674591	89.31143760471146	0	0
0.1	-4.740493593289388	-3.150583135588962	30.00696950352638	0	0.9399999999999999	0	54.54206545002411	-0.5177784716654954	-16.63744978674758	46.8844174242352	0.8182874519323032	0	0	0	58.28043305832266	13.83573451682216	-23.91557659355338	44.61299334794707	0.7786436230920045	0	0	0	0	0	0	4.015169310594211	-4.015169310594211	0.7389133181523239	21.28148853428933	89.26108672513743	0	0	4.015169310594211	-4.015169310594211	0.7389133181523239	21.28148853428933	89.26108672434069	0	0
0.12	-4.745160532618319	-3.157258214105343	30.02390965369397	0	0.9399999999999999	0	54.55757827703474	-0.5274716959146392	-16.65129992870507	46.91425207953205	0.8188081648984309	0	0	0	58.28773295981888	13.84865086675967	-23.89894983650157	44.63624849288971	0.7790495019392822	0	0	0	0	0	0	4.206571238305518	-4.206571238305517	0.7749909090766414	22.16201169531562	89.22500913634886	0	0	4.206571238305518	-4.206571238305517	0.7749909090766414	22.16201169531562	89.22500913555882	0	0
0.14	-4.736375794501606	-3.168001372211056	30.02481577335069	0	0.9399999999999999	0	54.5626445410827	-0.5194096665904916	-16.66995966106457	46.93323610241444	0.8191394986030026	0	0	0	58.28028701841733	13.82461184324995	-23.87266722544143	44.67125581440703	0.7796604949620636	0	0	0	0	0	0	4.447358474578746	-4.447358474578746	0.8202707283353545	23.25296327593068	89.17972931976978	0	0	4.447358474578746	-4.447358474578746	0.8202707283353545	23.25296327593068	89.1797293189874	0	0
0.16	-4.772710582551384	-3.141840600756399	30.01999251551722	0	0.9399999999999999	0	54.57462805375686	-0.5447159688762965	-16.62858667843459	46.89005897329525	0.8183859155383139	0	0	0	58.3074781984785	13.86104523590305	-23.92158876962274	44.61605647164521	0.778697084685933	0	0	0	0	0	0	4.748665607775989	-4.748665607775988	0.8773451393296682	24.74119697418631	89.12265491215996	0	0	4.748665607775989	-4.748665607775988	0.8773451393296682	24.74119697418631	89.12265491138805	0	0
0.18	-4.77593054068868	-3.159790158198206	30.03469238895588	0	0.9399999999999999	0	54.59247669578322	-0.5469968643480196	-16.65113671675664	46.90788816351509	0.8186970936106146	0	0	0	58.30952564086587	13.85103297997661	-23.90674034701994	44.64071268099526	0.7791274167201523	0	0	0	0	0	0	4.84669449852512	-4.846694498525119	0.8956509192111418	25.15523788909487	89.10434913335932	0	0	4.84669449852512	-4.846694498525119	0.8956509192111418	25.15523788909487	89.10434913259091	0	0
0.2	-4.784422021356734	-3.162457997488866	30.0338767656842	0	0.9399999999999999	0	54.59477948057661	-0.5548933976082261	-16.63535872510127	46.90745303685448	0.8186894992177238	0	0	0	58.3099094370113	13.85491885161505	-23.92545986300476	44.63854415560111	0.7790895688121113	0	0	0	0	0	0	4.92272998029851	-4.922729980298509	0.9098241248492029	25.47223863301175	89.09017592855774	0	0	4.92272998029851	-4.922729980298509	0.9098241248492029	25.47223863301175	89.09017592779198	0	0
0.22	-4.79834433384805	-3.163679771601049	30.03361193291507	0	0.9399999999999999	0	54.60024308208828	-0.5593929227523724	-16.62681132138637	46.91753378526913	0.8188654414686245	0	0	0	58.35035514713564	13.86131195024991	-23.93870409848111	44.65263226149462	0.7793354526453227	0	0	0	0	0	0	5.074147446942249	-5.074147446942248	0.9382546078718992	26.15105599071512	89.06174544721628	0	0	5.074147446942249	-5.074147446942248	0.9382546078718992	26.15105599071512	89.06174544645621	0	0
0.24	-4.791704313615407	-3.165097352997772	30.04096481220112	0	0.9399999999999999	0	54.59775346709698	-0.5791779035496654	-16.64833179352529	46.93613468149709	0.8191900883516243	0	0	0	58.33547097045393	13.8445684203806	-23.92727718438347	44.65871703245141	0.7794416519327485	0	0	0	0	0	0	5.268295093424237	-5.268295093424235	0.9744401966384099	26.96934228110609	89.02555986058611	0	0	5.268295093424237	-5.268295093424235	0.9744401966384099	26.96934228110609	89.02555985983275	0	0
0.26	-4.824046076200146	-3.152327721133866	30.059051784247	0	0.9399999999999999	0	54.61419540538939	-0.6017656389709853	-16.61458683369825	46.92125179172383	0.8189303329228695	0	0	0	58.37426073639703	13.89031069061669	-23.93975149051543	44.64442921942116	0.7791922825524612	0	0	0	0	0	0	5.363974194396601	-5.3639741943966	0.9921705286926669	27.35343564589295	89.00782952957672	0	0	5.363974194396601	-5.3639741943966	0.9921705286926669	27.35343564589295	89.00782952882665	0	0
0.28	-4.821624690292404	-3.150259921449315	30.04903270496857	0	0.9399999999999999	0	54.62959970951427	-0.603171916363661	-16.61011313346928	46.92529201928673	0.8190008481963719	0	0	0	58.3577531788163	13.8838828970017	-23.94815880523599	44.64889165531813	0.7792701667515226	0	0	0	0	0	0	5.494617907746502	-5.494617907746501	1.016335397788677	27.87116351613074	88.98366466190411	0	0	5.494617907746502	-5.494617907746501	1.016335397788677	27.87116351613074	88.98366466115856	0	0
0.3	-4.852800965157124	-3.158288755005924	30.03232316184795	0	0.9399999999999999	0	54.66071825597005	-0.581273322597589	-16.57733991495306	46.91301452431875	0.8187865654852837	0	0	0	58.3942368289561	13.87760613181153	-23.95175360200964	44.64876950030087	0.7792680347442735	0	0	0	0	0	0	5.615483993886353	-5.615483993886352	1.03869906398707	28.35602502907996	88.96130099702317	0	0	5.615483993886353	-5.615483993886352	1.03869906398707	28.35602502907996	88.96130099628211	0	0
0.32	-4.856190996769201	-3.156958740852597	30.02059360159329	0	0.9399999999999999	0	54.64592963616746	-0.562318579916108	-16.57211841614041	46.91612101585381	0.8188407839907558	0	0	0	58.40916357636092	13.88275270880001	-23.94794386859123	44.64735403921066	0.7792433302878156	0	0	0	0	0	0	5.700031126196738	-5.700031126196737	1.054291346349224	28.68502542801152	88.94570871557873	0	0	5.700031126196738	-5.700031126196737	1.054291346349224	28.68502542801152	88.94570871484059	0	0
0.34	-4.886426555981198	-3.163734930525222	30.00277321616328	0	0.9399999999999999	0	54.68217910588865	-0.5549054544678266	-16.56237197410392	46.91994740382134	0.8189075670592478	0	0	0	58.44133973967746	13.86414491495792	-23.9636764747723	44.65772025027164	0.7794242548017863	0	0	0	0	0	0	5.797248572656521	-5.79724857265652	1.072239973505768	29.06741914715569	88.92776008947882	0	0	5.797248572656521	-5.79724857265652	1.072239973505768	29.06741914715569	88.92776008874419	0	0
0.36	-4.927359315594702	-3.17144228278083	29.99903298579722	0	0.9399999999999999	0	54.73021657564404	-0.5586224999085301	-16.54543890336753	46.89303392640927	0.8184378382652461	0	0	0	58.48820698320028	13.87350095020595	-23.9801654355794	44.66060013175165	0.7794745182156796	0	0	0	0	0	0	5.952694918768546	-5.952694918768545	1.101097247204385	29.70554866728311	88.89890281748214	0	0	5.952694918768546	-5.952694918768545	1.101097247204385	29.70554866728311	88.89890281675279	0	0
